# xmcd
#
# Track frame offsets: 
#        150
#        15030
#        29155
#        44995
#        59445
#        77997
#        91965
#        115752
#        126565
#        144095
#        161010
#        181000
#        198870
#        210595
#
# Disc length: 3062 seconds
#
# Revision: 14
# Processed by: cddbd v1.5.2PL0 Copyright (c) Steve Scherf et al.
# Submitted via: ExactAudioCopy v0.99pb4
#
DISCID=be0bf40e
DTITLE=Frank Sinatra - Duets II
DYEAR=1994
DGENRE=Jazz
TTITLE0=For Once In My Life (duet with Gladys Knight and Stevie Wonder)
TTITLE1=Come Fly With Me (duet with Luis Miguel)
TTITLE2=Bewitched (duet with Patti LaBelle)
TTITLE3=The Best Is Yet To Come (duet with Jon Secada)
TTITLE4=Moonlight in Vermont (duet with Linda Ronstadt)
TTITLE5=Fly Me To The Moon (duet with Antonio Carlos Jobim)
TTITLE6=Luck Be A Lady (duet with Chrissie Hynde)
TTITLE7=A Foggy Day (duet with Willie Nelson)
TTITLE8=Where Or When (duet with Steve Lawrence and Eydie Gorme)
TTITLE9=Embraceable You (duet with Lena Horne)
TTITLE10=Mack The Knife (duet with Jimmy Buffett)
TTITLE11=How Do You Keep The Music Playing? - My Funny Valentine (duet
TTITLE11=with Lorrie Morgan)
TTITLE12=My Kind Of Town (duet with Frank Sinatra, Jr.)
TTITLE13=The House I Live In (That's America To Me) (duet with Neil Di
TTITLE13=amond)
EXTD=YEAR: 1994
EXTT0=
EXTT1=
EXTT2=
EXTT3=
EXTT4=
EXTT5=
EXTT6=
EXTT7=
EXTT8=
EXTT9=
EXTT10=
EXTT11=
EXTT12=
EXTT13=
PLAYORDER=
